HIERARCHY
ROOT Hips
{
	OFFSET -3.958830 18.904000 13.208200
	CHANNELS 6 Xposition Yposition Zposition Zrotation Yrotation Xrotation 
	JOINT LHipJoint
	{
		OFFSET 0.000000 0.000000 0.000000
		CHANNELS 3 Zrotation Yrotation Xrotation
		JOINT LeftUpLeg
		{
			OFFSET 1.800000 -1.400000 0.085000
			CHANNELS 3 Zrotation Yrotation Xrotation
			JOINT LeftLeg
			{
				OFFSET 2.215000 -6.000000 0.000000
				CHANNELS 3 Zrotation Yrotation Xrotation
				JOINT LeftFoot
				{
					OFFSET 2.500000 -6.900000 0.000000
					CHANNELS 3 Zrotation Yrotation Xrotation
					JOINT LeftToeBase
					{
						OFFSET 0.200000 -0.500000 1.950000
						CHANNELS 3 Zrotation Yrotation Xrotation
						End Site
						{
							OFFSET 0.000000 0.000000 0.000000
						}
					}
				}
			}
		}
	}
	JOINT RHipJoint
	{
		OFFSET 0.000000 0.000000 0.000000
		CHANNELS 3 Zrotation Yrotation Xrotation
		JOINT RightUpLeg
		{
			OFFSET -1.800000 -1.400000 0.085000
			CHANNELS 3 Zrotation Yrotation Xrotation
			JOINT RightLeg
			{
				OFFSET -2.215000 -6.000000 0.000000
				CHANNELS 3 Zrotation Yrotation Xrotation
				JOINT RightFoot
				{
					OFFSET -2.500000 -6.900000 0.000000
					CHANNELS 3 Zrotation Yrotation Xrotation
					JOINT RightToeBase
					{
						OFFSET -0.200000 -0.500000 1.950000
						CHANNELS 3 Zrotation Yrotation Xrotation
						End Site
						{
							OFFSET 0.000000 0.000000 0.000000
						}
					}
				}
			}
		}
	}
	JOINT LowerBack
	{
		OFFSET 0.000000 0.000000 0.000000
		CHANNELS 3 Zrotation Yrotation Xrotation
		JOINT Spine
		{
			OFFSET -0.087000 1.940000 -0.288900
			CHANNELS 3 Zrotation Yrotation Xrotation
			JOINT Spine1
			{
				OFFSET 0.000000 1.950000 0.060000
				CHANNELS 3 Zrotation Yrotation Xrotation
				JOINT Neck
				{
					OFFSET 0.000000 0.000000 0.000000
					CHANNELS 3 Zrotation Yrotation Xrotation
					JOINT Neck1
					{
						OFFSET 0.000000 1.600000 0.340000
						CHANNELS 3 Zrotation Yrotation Xrotation
						JOINT Head
						{
							OFFSET 0.000000 1.667000 -0.240000
							CHANNELS 3 Zrotation Yrotation Xrotation
							End Site
							{
								OFFSET 0.000000 0.000000 0.000000
							}
						}
					}
				}
				JOINT LeftShoulder
				{
					OFFSET 0.000000 0.000000 0.000000
					CHANNELS 3 Zrotation Yrotation Xrotation
					JOINT LeftArm
					{
						OFFSET 2.700000 1.550000 -0.730000
						CHANNELS 3 Zrotation Yrotation Xrotation
						JOINT LeftForeArm
						{
							OFFSET 5.450000 0.000000 0.000000
							CHANNELS 3 Zrotation Yrotation Xrotation
							JOINT LeftHand
							{
								OFFSET 3.450000 0.000000 0.000000
								CHANNELS 3 Zrotation Yrotation Xrotation
								JOINT LeftHandIndex1
								{
									OFFSET 0.750000 0.000000 0.000000
									CHANNELS 3 Zrotation Yrotation Xrotation
									End Site
									{
										OFFSET 0.000000 0.000000 0.000000
									}
								}
							}
						}
					}
				}
				JOINT RightShoulder
				{
					OFFSET 0.000000 0.000000 0.000000
					CHANNELS 3 Zrotation Yrotation Xrotation
					JOINT RightArm
					{
						OFFSET -2.700000 1.550000 -0.730000
						CHANNELS 3 Zrotation Yrotation Xrotation
						JOINT RightForeArm
						{
							OFFSET -5.450000 0.000000 0.000000
							CHANNELS 3 Zrotation Yrotation Xrotation
							JOINT RightHand
							{
								OFFSET -3.450000 0.000000 0.000000
								CHANNELS 3 Zrotation Yrotation Xrotation
								JOINT RightHandIndex1
								{
									OFFSET -0.750000 0.000000 0.000000
									CHANNELS 3 Zrotation Yrotation Xrotation
									End Site
									{
										OFFSET 0.000000 0.000000 0.000000
									}
								}
							}
						}
					}
				}
			}
		}
	}
}
MOTION
Frames: 9
Frame Time: 0.016667
-1.217650 16.319070 -1.754730 -2.420601 25.474375 8.945992 -14.680959 9.540493 4.124108 -3.457163 -5.355774 -43.499085 -11.501116 7.496557 19.513302 -0.265231 3.916607 3.182394 -0.575520 -0.223430 -0.713950 19.095471 -11.778453 3.442741 10.936733 -0.343356 -13.832299 10.690630 -3.714421 -0.318912 0.046089 -3.458107 2.851706 -0.036440 0.933590 0.146780 -5.719691 5.673644 -8.127748 6.623203 11.936799 9.906713 -8.396725 14.032733 10.148148 -1.204989 2.878653 -11.941471 7.405412 -14.800248 23.650363 -5.370870 -12.187730 1.226650 -2.344688 -13.075776 5.942819 -7.293747 -1.399638 -2.173858 21.455773 3.938994 0.202841 -4.841528 2.790594 -0.327720 0.465040 -0.309390 0.032160 4.823722 19.440171 7.962287 60.686646 29.220805 8.506540 -5.143361 16.589631 -2.467964 2.574947 -1.478328 -0.244630 0.393170 0.494970 0.529000 
-1.220420 16.326570 -1.756540 -2.847015 24.149981 8.080018 -14.661758 9.635597 4.108172 -3.795212 -5.367383 -42.309604 -11.937683 7.766946 20.317749 -0.233878 4.036504 3.128619 -0.577680 -0.243670 -0.696170 19.083463 -11.843791 3.486236 11.111489 -0.570667 -13.055801 10.425031 -3.840324 -0.002852 0.014866 -3.465212 2.844301 -0.065020 0.903260 0.138130 -5.756692 5.651388 -8.204894 6.819949 10.905324 11.367314 -8.641934 13.314986 9.033637 -1.579594 2.471029 -11.505366 6.612198 -12.685320 24.814668 -4.330240 -10.771390 0.521650 -3.391107 -11.955994 5.750053 -10.363267 -0.005177 -2.192803 20.990395 3.222600 0.243926 -4.778320 2.789617 -0.275130 0.423990 -0.283980 0.017730 6.413564 18.690873 7.510442 59.699785 27.678094 8.553537 -3.579737 12.574540 -1.482629 2.657589 -1.418399 -0.248710 0.385290 0.498960 0.508310 
-1.221890 16.339740 -1.763160 -3.353050 24.061372 7.048251 -14.708605 9.811871 4.159790 -5.195646 -6.064512 -40.587364 -12.233948 8.038969 21.992450 -0.216509 4.211052 3.039695 -0.549970 -0.260520 -0.608430 19.013071 -11.717286 3.539000 10.967125 -0.781106 -11.873410 11.138153 -3.904770 -0.763911 -0.082629 -3.436380 2.825079 -0.104450 0.797490 0.123650 -5.621224 5.130524 -8.340984 6.829608 9.281637 13.768378 -9.573560 12.145053 6.948241 -1.484431 2.112477 -10.949680 5.551924 -11.984528 26.843893 -3.513560 -10.488820 -2.459960 -5.451026 -11.024055 5.373638 -12.190467 -0.202451 -2.119418 19.897836 4.457971 0.328563 -4.655416 2.717428 -0.128150 0.307910 -0.189880 -0.021240 7.862613 17.580091 7.200903 58.904939 23.397652 7.399055 -2.577834 7.156235 -0.452291 2.767717 -1.280251 -0.255060 0.397900 0.498750 0.450980 
-1.218340 16.327340 -1.761530 -4.044608 23.571555 7.355310 -14.792360 9.994376 4.277823 -7.129892 -6.953471 -39.770721 -11.240482 7.911933 23.526958 -0.200243 4.266386 3.031832 -0.608650 -0.352980 -0.610620 18.920090 -11.495123 3.566335 11.444911 -0.629421 -12.052327 11.900096 -3.917794 -0.926805 -0.078573 -3.338812 2.871387 -0.169720 0.783590 0.106490 -5.362806 4.426869 -8.392052 6.054987 8.418694 14.823884 -9.950580 10.940301 3.489030 -1.437561 1.317140 -10.067353 3.662993 -11.506361 27.630624 -3.897580 -10.228460 -2.881250 -6.707147 -7.864949 4.090115 -15.021934 -0.890055 -1.859658 17.106014 2.786836 0.092446 -4.587489 2.616131 -0.068550 0.280330 -0.174960 -0.050030 8.400898 14.297420 6.782149 57.996281 17.389098 5.537443 -0.655959 2.230969 0.295631 2.869066 -1.157948 -0.284610 0.416950 0.531190 0.423200 
-1.235960 16.304440 -1.749890 -4.704662 21.653785 8.611921 -14.871999 10.114228 4.429141 -9.099572 -7.732532 -39.874060 -9.520248 7.515591 24.623831 -0.176250 4.194898 3.094818 -0.715950 -0.473620 -0.673250 18.837795 -11.298716 3.588536 12.421730 -0.326019 -13.075719 12.424041 -3.906257 -0.670628 -0.017637 -3.193233 2.963327 -0.248460 0.835970 0.072540 -5.083965 3.880920 -8.414691 4.348076 8.277327 15.252185 -10.474244 9.959203 -0.969654 -1.276156 0.466017 -9.256831 1.959827 -10.190554 27.446473 -3.759510 -9.328360 -1.797450 -6.808203 -3.580630 2.497579 -19.485367 -0.593539 -2.317799 16.459894 -1.394931 -0.203812 -4.537412 2.557224 -0.061280 0.297950 -0.204880 -0.061580 7.519427 10.301528 6.515812 57.416432 12.026227 3.705485 0.100134 -2.427499 0.754359 2.966345 -1.055548 -0.329840 0.450400 0.571090 0.425950 
-1.232110 16.261960 -1.713470 -5.724311 19.486519 10.963233 -14.969842 10.199101 4.605480 -10.421011 -8.570102 -40.788239 -8.214231 6.998122 24.833317 -0.169314 4.009820 3.157643 -0.705040 -0.478180 -0.675290 18.759190 -11.002424 3.580007 13.458109 0.302517 -14.954173 13.397451 -3.849653 -0.104101 0.026808 -3.042232 3.007946 -0.267690 0.821830 0.085920 -4.763655 3.197478 -8.384052 2.489552 8.110899 14.199536 -10.980276 8.403108 -6.499792 -0.633951 -0.703433 -7.505988 -0.071433 -9.412065 25.729499 -3.461400 -9.051840 -1.518320 -7.152173 2.788542 0.159329 -23.097065 -0.765719 -2.707001 15.664756 -4.394686 -0.367152 -4.472139 2.640667 -0.072330 0.290000 -0.217070 -0.053090 6.027669 4.261859 5.482178 55.952252 6.982395 1.942180 0.454637 -6.895907 1.022553 3.078280 -1.043448 -0.307830 0.391560 0.551780 0.430440 
-1.237730 16.255180 -1.670250 -6.517700 16.471549 12.887883 -15.036091 10.321022 4.726575 -10.643557 -9.023174 -41.210878 -8.605961 7.169355 25.273374 -0.068985 4.078124 3.143553 -0.751040 -0.542720 -0.704120 18.690694 -10.798157 3.597797 14.356814 0.603601 -15.894221 13.792002 -3.830175 0.183622 0.055359 -2.916388 3.069906 -0.343890 0.811130 0.079040 -4.515327 2.638757 -8.450184 0.657369 7.726608 14.132048 -11.965546 6.667120 -12.198610 -0.047488 -2.220159 -6.849322 -2.631697 -8.062820 25.041529 -2.869950 -8.521740 -0.858970 -6.188038 7.991752 -1.042253 -27.406007 1.437092 -3.608292 15.494438 -6.817182 -0.350332 -4.399640 2.667624 -0.065160 0.264090 -0.215410 -0.051930 3.566620 0.071681 5.266355 53.968676 2.330035 -0.195881 -1.058910 -10.268867 1.513414 3.208302 -0.976447 -0.293720 0.347920 0.542830 0.443120 
-1.255510 16.237850 -1.634070 -7.705087 13.088803 15.088153 -15.083027 10.399200 4.804203 -10.771225 -9.330995 -42.054388 -8.125572 7.022626 25.448149 0.001354 4.064579 3.195636 -0.835720 -0.626760 -0.784860 18.658548 -10.617488 3.607089 16.083346 0.940615 -17.199092 13.098048 -3.794788 1.035110 0.138591 -2.779203 3.164368 -0.405700 0.888380 0.082960 -4.348540 2.196314 -8.449244 -0.176871 7.427917 12.936533 -13.474623 5.154362 -16.443035 1.085627 -3.874279 -6.519437 -5.058254 -7.134196 23.175305 -3.716220 -7.885400 1.377310 -3.910783 12.666590 -2.169032 -31.630442 2.692235 -4.361258 13.757948 -7.481064 -0.268351 -4.433661 2.628481 -0.124910 0.321260 -0.262320 -0.027640 -0.950899 -3.181737 5.544554 51.772851 -1.261665 -1.836911 -1.530525 -12.941209 1.856311 3.297739 -0.915181 -0.300440 0.339270 0.550580 0.484790 
-1.281500 16.228630 -1.579890 -8.800770 8.488263 17.486158 -15.158623 10.532159 4.791004 -10.326313 -9.284054 -42.644721 -8.339083 6.967891 24.478023 -0.016650 3.986356 3.227792 -0.943480 -0.742730 -0.872720 18.601821 -10.401460 3.601132 17.262230 1.239677 -18.143382 13.096315 -3.822709 1.682470 0.220254 -2.723238 3.199526 -0.462440 0.942620 0.075100 -4.099874 1.623312 -8.362009 -2.111931 7.724007 11.151882 -14.472302 3.872999 -20.454262 2.842923 -5.279450 -6.228152 -6.933775 -5.538053 20.665909 -4.705870 -6.145760 2.902610 -1.215654 17.721073 -3.369134 -35.873235 3.752090 -5.065398 13.700874 -8.241886 -0.228952 -4.509958 2.616458 -0.169000 0.374100 -0.337510 -0.061550 -6.503207 -6.904416 5.579630 49.825479 -4.568006 -4.114797 1.209823 -11.270899 0.951427 3.267452 -0.810743 -0.330010 0.315800 0.621370 0.481550 
